<svg width="32" height="32" viewBox="0 0 32 32" fill="none" xmlns="http://www.w3.org/2000/svg">
<path d="M4.74304 0L0 4.74304L1.78069 6.52046L4.15057 4.15057L5.33552 5.33552L2.96563 7.7054L5.33552 10.0753L7.7054 7.7054L8.89034 8.89034L6.52046 11.2602L8.89034 13.6301L13.6301 8.89034L4.74304 0ZM26.5303 0.729951L22.0622 5.19804L26.802 9.93781L31.2701 5.46972C30.628 4.56696 29.9226 3.69675 29.1129 2.88707C28.3033 2.07741 27.433 1.37205 26.5303 0.729951ZM19.6923 7.56792L1.91489 25.3453L0.729951 31.2701L6.65466 30.0851L24.4321 12.3077L19.6923 7.56792ZM23.1097 18.3699L18.3699 23.1097L20.7398 25.4795L23.1097 23.1097L24.2946 24.2946L21.9247 26.6645L24.2946 29.0344L26.6645 26.6645L27.8494 27.8494L25.4795 30.2193L27.257 32L32 27.257L23.1097 18.3699Z" fill="#191617" fill-opacity="0.5"/>
</svg>
