<svg width="48.000000" height="48.000000" viewBox="0 0 48 48" fill="none" xmlns="http://www.w3.org/2000/svg" xmlns:xlink="http://www.w3.org/1999/xlink">
	<desc>
			Created with Pixso.
	</desc>
	<defs/>
	<path id="Vector" d="M25.16 21.29L25.16 37.93L22.06 37.93L22.06 20.12L25.16 21.29Z" fill="#000000" fill-opacity="1.000000" fill-rule="nonzero"/>
	<path id="Vector" d="M12.76 19.74C12.76 15.48 15.08 13.16 17.8 13.16C20.52 13.16 20.91 13.55 24 15.1C27.08 16.65 27.87 17.04 29.42 17.04C30.97 17.04 31.74 15.87 31.74 13.55L34.44 13.55C34.83 18.19 32.12 20.12 29.4 20.12C26.68 20.12 25.91 19.74 23.21 18.19C20.51 16.64 19.72 16.25 18.17 16.25C16.62 16.25 15.85 17.42 15.47 20.12L12.76 19.74Z" fill="#000000" fill-opacity="1.000000" fill-rule="nonzero"/>
	<path id="Vector" d="M24 48C10.76 48 0 37.23 0 24C0 10.76 10.76 0 24 0C37.23 0 48 10.76 48 24C48 37.23 37.23 48 24 48ZM24 1.55C11.61 1.55 1.55 11.61 1.55 24C1.55 36.38 11.61 46.44 24 46.44C36.38 46.44 46.44 36.38 46.44 24C46.44 11.61 36.38 1.55 24 1.55Z" fill="#000000" fill-opacity="1.000000" fill-rule="nonzero"/>
</svg>
