<svg width="48.000000" height="48.000000" viewBox="0 0 48 48" fill="none" xmlns="http://www.w3.org/2000/svg" xmlns:xlink="http://www.w3.org/1999/xlink">
	<desc>
			Created with Pixso.
	</desc>
	<defs/>
	<path id="tg" d="M33.81 14.36C33.82 14.36 33.83 14.36 33.84 14.36C34.18 14.36 34.48 14.46 34.74 14.64L34.73 14.64C34.92 14.8 35.04 15.03 35.07 15.28L35.07 15.29C35.1 15.48 35.12 15.71 35.12 15.93C35.12 16.04 35.12 16.14 35.11 16.24L35.11 16.23C34.75 20 33.2 29.16 32.41 33.38C32.07 35.17 31.41 35.77 30.78 35.83C29.39 35.96 28.34 34.91 27 34.04C24.9 32.66 23.71 31.8 21.67 30.46C19.31 28.91 20.84 28.05 22.18 26.66C22.54 26.29 28.64 20.74 28.76 20.23C28.77 20.2 28.77 20.17 28.77 20.13C28.77 20.01 28.73 19.9 28.65 19.81C28.57 19.76 28.46 19.73 28.36 19.73C28.28 19.73 28.22 19.74 28.15 19.76L28.15 19.76C27.94 19.81 24.59 22.03 18.09 26.41C17.38 26.97 16.48 27.33 15.51 27.37L15.5 27.37C14.12 27.2 12.86 26.89 11.67 26.46L11.79 26.49C10.3 26.01 9.11 25.75 9.21 24.92C9.27 24.5 9.86 24.06 10.99 23.61C17.94 20.58 22.58 18.58 24.9 17.61C27.46 16.25 30.43 15.13 33.56 14.41L33.81 14.36L33.81 14.36ZM23.94 0C10.71 0.03 0 10.76 0 24C0 37.25 10.74 48 24 48C37.25 48 48 37.25 48 24C48 10.76 37.28 0.03 24.05 0L24.05 0C24.01 0 23.98 0 23.94 0Z" fill="#191617" fill-opacity="1.000000" fill-rule="evenodd"/>
</svg>
