<svg width="48" height="48" viewBox="0 0 48 48" fill="none" xmlns="http://www.w3.org/2000/svg">
<path d="M37.6837 48H10.3163C4.61815 48 0 43.3818 0 37.6837V10.3163C0 4.61815 4.61815 0 10.3163 0H37.6846C43.3818 0 48 4.61815 48 10.3163V37.6846C48 43.3818 43.3818 48 37.6837 48Z" fill="#393687"/>
<path d="M11.2244 36H8.56592V10.1538H17.4644C19.8764 10.1538 21.6671 10.9043 22.8367 12.4061C24.0053 13.907 24.5905 15.8769 24.5905 18.3129C24.5905 19.175 24.5656 19.919 24.5167 20.5467C24.4668 21.1753 24.3136 21.9627 24.0551 22.9107C23.7967 23.8578 23.4459 24.6332 23.0028 25.2369C22.5598 25.8406 21.8831 26.3695 20.9721 26.8246C20.061 27.2806 18.9782 27.5077 17.7228 27.5077H11.2244V36ZM11.2244 24.923H17.3905C18.2767 24.923 19.0271 24.7504 19.6428 24.4061C20.2576 24.0609 20.7071 23.6926 20.9905 23.2984C21.273 22.9043 21.4945 22.3384 21.6551 21.6C21.8148 20.8606 21.9016 20.3077 21.9136 19.9375C21.9256 19.5692 21.9321 19.0393 21.9321 18.3498C21.9321 14.6086 20.3684 12.7375 17.2428 12.7375H11.2244V24.923Z" fill="#89D3FF"/>
<path d="M27.2124 31.311L29.797 31.2002C29.8949 32.1113 30.3509 32.8193 31.1632 33.3233C31.9755 33.8282 32.9106 34.0802 33.9693 34.0802C35.0281 34.0802 35.9447 33.8402 36.7201 33.3602C37.4955 32.8802 37.8832 32.1916 37.8832 31.2934C37.8832 30.3953 37.5509 29.6808 36.8862 29.1519C36.2216 28.623 35.4093 28.2048 34.4493 27.8965C33.4893 27.5891 32.5238 27.2633 31.5509 26.918C30.5779 26.5737 29.7232 26.0319 28.9847 25.2934C28.0736 24.4313 27.6186 23.3799 27.6186 22.1365C27.6186 20.8931 28.117 19.7356 29.1139 18.6648C30.1109 17.594 31.729 17.0596 33.9693 17.0596C34.7576 17.0596 35.4952 17.1519 36.1847 17.3365C36.8733 17.5211 37.3662 17.7002 37.6616 17.8719L38.1047 18.1294L37.2555 20.4565C36.4672 19.8417 35.4333 19.5334 34.1539 19.5334C32.8736 19.5334 31.9201 19.7734 31.2924 20.2534C30.6647 20.7334 30.3509 21.3426 30.3509 22.0802C30.3509 22.8925 30.7441 23.5331 31.5324 24.0002C32.3198 24.4682 33.2059 24.8623 34.1909 25.1817C35.1749 25.502 36.1533 25.8583 37.1263 26.2525C38.0983 26.6466 38.9226 27.2623 39.6001 28.0986C40.2776 28.935 40.6155 30.0426 40.6155 31.4217C40.6155 32.8008 40.0616 34.0008 38.9539 35.0217C37.8462 36.0426 36.2272 36.554 34.0986 36.554C31.969 36.554 30.301 36.0491 29.0955 35.0402C27.889 34.0313 27.2613 32.7879 27.2124 31.311Z" fill="#89D3FF"/>
</svg>
