<svg width="48" height="48" viewBox="0 0 48 48" fill="none" xmlns="http://www.w3.org/2000/svg">
<g clip-path="url(#clip0_421_5)">
<path d="M24 48C37.2548 48 48 37.2548 48 24C48 10.7452 37.2548 0 24 0C10.7452 0 0 10.7452 0 24C0 37.2548 10.7452 48 24 48Z" fill="#F24E1E"/>
<path d="M24.0001 24C24.0001 21.7922 25.7907 20.0016 27.9985 20.0016C30.2063 20.0016 31.997 21.7922 31.997 24C31.997 26.2078 30.2063 27.9984 27.9985 27.9984C25.7907 27.9984 24.0001 26.2078 24.0001 24ZM15.9985 32.0016C15.9985 29.7938 17.7892 28.0031 19.997 28.0031H24.0001V32.0016C24.0001 34.2094 22.2095 36 20.0017 36C17.7938 36 15.9985 34.2094 15.9985 32.0016ZM24.0001 12V20.0016H27.9985C30.2063 20.0016 31.997 18.2109 31.997 16.0031C31.997 13.7953 30.211 12 27.9985 12H24.0001ZM15.9985 15.9984C15.9985 18.2062 17.7892 19.9969 19.997 19.9969H24.0001V12H20.0017C17.7892 12 15.9985 13.7906 15.9985 15.9984ZM15.9985 24C15.9985 26.2078 17.7892 27.9984 19.997 27.9984H24.0001V20.0016H20.0017C17.7892 20.0016 15.9985 21.7922 15.9985 24Z" fill="white"/>
</g>
<defs>
<clipPath id="clip0_421_5">
<rect width="48" height="48" fill="white"/>
</clipPath>
</defs>
</svg>
