<svg width="32" height="32" viewBox="0 0 32 32" fill="none" xmlns="http://www.w3.org/2000/svg">
<path d="M16 0C11.7565 0 7.68687 1.68571 4.68629 4.68629C1.68571 7.68687 0 11.7565 0 16C0 20.2435 1.68571 24.3131 4.68629 27.3137C7.68687 30.3143 11.7565 32 16 32C20.2435 32 24.3131 30.3143 27.3137 27.3137C30.3143 24.3131 32 20.2435 32 16C32 11.7565 30.3143 7.68687 27.3137 4.68629C24.3131 1.68571 20.2435 0 16 0ZM18.401 8L20.3724 8.92188L19.7422 10.2292L27.8073 15.2083V17.0495L21.5026 20.9609L20.3568 19.2161L25.5911 16.1302L18.8203 12.1693L13.1146 24L11.1276 23.0938L11.7734 21.7526L4.19271 17.0495V15.224L10.513 11.2969L11.6432 13.0573L6.39062 16.1302L12.6953 19.8307L18.401 8Z" fill="white"/>
</svg>
