<svg width="57" height="56" viewBox="0 0 57 56" fill="none" xmlns="http://www.w3.org/2000/svg">
<path fill-rule="evenodd" clip-rule="evenodd" d="M0.992657 0.606518C1.34614 0.219973 1.84446 0 2.36667 0H54.6332C55.1555 0 55.6539 0.219973 56.0071 0.606518C56.3606 0.993066 56.5369 1.51084 56.4936 2.03414L52.7602 46.7713C52.6975 47.5192 52.1984 48.1578 51.4902 48.3951L29.0903 55.9037C28.7071 56.0321 28.2928 56.0321 27.9097 55.9037L5.50971 48.3951C4.80169 48.1578 4.30228 47.5192 4.23986 46.7713L0.506545 2.03414C0.462875 1.51084 0.639179 0.993066 0.992657 0.606518ZM41.5666 11.263H15.4333V15.0173H37.8333V22.5259H22.9V26.2802H37.8333V34.3131L28.5 37.4416L19.1666 34.3131V30.0346H15.4333V37.019L28.5 41.3989L41.5666 37.019V11.263Z" fill="#FF5005"/>
</svg>
