<svg width="48.000000" height="48.000000" viewBox="0 0 48 48" fill="none" xmlns="http://www.w3.org/2000/svg" xmlns:xlink="http://www.w3.org/1999/xlink">
	<desc>
			Created with Pixso.
	</desc>
	<defs/>
	<path id="gmail" d="M24 0C10.74 0 0 10.74 0 24C0 37.25 10.74 48 24 48C37.25 48 48 37.25 48 24C48 10.74 37.25 0 24 0ZM34.81 13.33L23.99 21.88L12.81 13.33L34.81 13.33ZM35.92 34.66L11.7 34.66L11.7 16.94L22.86 25.41C23.16 25.64 23.61 25.75 23.96 25.75C24.33 25.75 24.65 25.63 24.95 25.39L35.92 16.67L35.92 34.66Z" fill="#191617" fill-opacity="1.000000" fill-rule="evenodd"/>
</svg>
