<svg width="56" height="56" viewBox="0 0 56 56" fill="none" xmlns="http://www.w3.org/2000/svg">
<path d="M55.9358 23.6043C55.7278 22.5667 55.0344 21.7089 54.0926 21.3238L50.7899 19.9758V23.5416L51.4153 23.7969C51.6974 23.9127 51.9056 24.1702 51.9674 24.4807C52.0292 24.7921 51.9386 25.1167 51.7242 25.3417L30.5309 47.5953C30.1115 48.0345 29.4851 48.173 28.9318 47.948L24.2217 46.0244V49.5902L27.5276 50.9403C29.4067 51.7073 31.5393 51.2367 32.9652 49.7396L55.1239 26.4712C55.8379 25.7214 56.144 24.6428 55.9358 23.6043Z" fill="#FF5005"/>
<path d="M3.38122 33.0174C3.52953 30.8472 4.19311 28.0041 6.49469 28.1382L27.5166 36.7237C29.4009 37.493 31.5396 37.0169 32.9654 35.5111L53.2841 14.0343C53.995 13.2834 54.2979 12.2059 54.0888 11.1706C53.8797 10.1343 53.1873 9.2785 52.2478 8.89546L31.3541 0.363028C29.4698 -0.406268 27.3301 0.0698043 25.9052 1.57578L2.36753 26.4539C0.505859 28.0626 0 31.0625 0 33.727C0 36.3917 0.168984 39.5896 3.04544 40.8326L2.36753 40.666L8.70494 43.2539V40.8716C8.70494 40.4843 8.75087 40.1057 8.82601 39.7368L4.56695 37.9971C3.21234 37.4583 3.21125 35.5229 3.38122 33.0174Z" fill="#FF5005"/>
<path d="M12.1459 39.1017C11.6988 39.5734 11.448 40.2094 11.448 40.8716V51.9064L15.913 50.9024L21.4789 56V44.9684C21.4789 44.3031 21.7302 43.667 22.1774 43.1975L23.9571 41.3281L13.9268 37.2322L12.1459 39.1017Z" fill="#FF5005"/>
</svg>
