<svg width="48.000000" height="48.000000" viewBox="0 0 48 48" fill="none" xmlns="http://www.w3.org/2000/svg" xmlns:xlink="http://www.w3.org/1999/xlink">
	<desc>
			Created with Pixso.
	</desc>
	<defs/>
	<path id="github" d="M24 0C10.74 0 0 11.01 0 24.61C0 35.41 6.79 44.59 16.24 47.9L16.41 47.95C17.61 48.18 18.05 47.42 18.05 46.77C18.05 46.19 18.03 44.64 18.02 42.59C11.34 44.07 9.93 39.28 9.93 39.28C9.47 37.77 8.53 36.52 7.29 35.7L7.26 35.69C5.09 34.16 7.43 34.19 7.43 34.19C9.01 34.42 10.33 35.37 11.09 36.7L11.11 36.73C11.99 38.36 13.67 39.45 15.59 39.45C16.51 39.45 17.38 39.2 18.12 38.76L18.1 38.77C18.21 37.47 18.77 36.33 19.62 35.48L19.62 35.48C14.29 34.86 8.68 32.75 8.68 23.32C8.68 23.27 8.68 23.22 8.68 23.17C8.68 20.68 9.62 18.41 11.16 16.71L11.15 16.72C10.83 15.83 10.64 14.8 10.64 13.73C10.64 12.45 10.9 11.24 11.38 10.15L11.36 10.2C11.36 10.2 13.37 9.54 17.96 12.72C19.76 12.2 21.83 11.89 23.96 11.89C26.1 11.89 28.16 12.2 30.12 12.76L29.96 12.72C34.52 9.54 36.53 10.2 36.53 10.2C36.99 11.26 37.25 12.48 37.25 13.78C37.25 14.83 37.08 15.84 36.75 16.78L36.77 16.72C38.3 18.41 39.24 20.68 39.24 23.18C39.24 23.23 39.24 23.28 39.23 23.33L39.23 23.32C39.23 32.77 33.62 34.85 28.28 35.46C29.29 36.52 29.92 37.97 29.92 39.58C29.92 39.73 29.91 39.88 29.9 40.03L29.9 40.01C29.9 43.31 29.87 45.95 29.87 46.75C29.87 47.4 30.29 48.17 31.52 47.92C41.17 44.59 48 35.4 48 24.57C48 11 37.26 0 24.02 0C24.01 0 24 0 23.99 0L23.99 0L24 0Z" fill="#191617" fill-opacity="1.000000" fill-rule="evenodd"/>
</svg>
