<svg width="57" height="56" viewBox="0 0 57 56" fill="none" xmlns="http://www.w3.org/2000/svg">
<path fill-rule="evenodd" clip-rule="evenodd" d="M0.993023 0.602727C1.34649 0.218586 1.84466 0 2.36667 0H54.6332C55.1552 0 55.6536 0.218586 56.0067 0.602727C56.3603 0.986871 56.5369 1.50147 56.4936 2.02168L52.7602 46.8215C52.6983 47.5656 52.1987 48.2014 51.4902 48.4373L29.0903 55.904C28.7071 56.032 28.2928 56.032 27.9097 55.904L5.50971 48.4373C4.80132 48.2014 4.3018 47.5656 4.23979 46.8215L0.506454 2.02168C0.463103 1.50147 0.639563 0.986871 0.993023 0.602727ZM41.5666 11.2H15.4333V26.1333H37.8333V34.1212L28.5 37.2323L19.1666 34.1212V29.8666H15.4333V36.812L28.5 41.1674L41.5666 36.812V22.4H19.1666V14.9333H41.5666V11.2Z" fill="#FF0530"/>
</svg>
