<svg width="56" height="56" viewBox="0 0 56 56" fill="none" xmlns="http://www.w3.org/2000/svg">
<path d="M54.2083 0H1.7917C0.802142 0 0 0.802322 0 1.7917V54.2083C0 55.1977 0.802142 56 1.7917 56H54.2083C55.1979 56 56 55.1977 56 54.2083V1.7917C56 0.802322 55.1979 0 54.2083 0ZM25.7332 31.1275C25.7332 34.4627 23.8638 36.5347 20.8541 36.5347C18.9638 36.5347 17.2746 35.5865 16.0977 33.8648C15.5772 33.1032 15.7725 32.0637 16.5341 31.543C17.296 31.0223 18.3357 31.218 18.856 31.9794C19.4068 32.7854 20.079 33.1939 20.8541 33.1939C21.4667 33.1939 22.3924 33.1939 22.3924 31.1277V22.623H17.8281C16.9055 22.623 16.1577 21.8752 16.1577 20.9526C16.1577 20.0301 16.9055 19.2822 17.8281 19.2822H24.0628C24.9854 19.2822 25.7332 20.0301 25.7332 20.9526V31.1275ZM33.9421 36.8373C31.7026 36.8373 29.4179 35.893 27.9795 34.3732C27.3452 33.7031 27.3744 32.6456 28.0443 32.0115C28.7146 31.3773 29.7723 31.4065 30.406 32.0764C31.2097 32.9256 32.6307 33.4963 33.9421 33.4963C35.2846 33.4963 36.8525 33.1043 36.8525 32.0001C36.8611 30.9591 36.3069 30.5692 33.7323 29.7893C31.4609 29.1014 28.0284 28.0617 28.0284 24.1051C28.0284 21.1488 30.5916 19.1625 34.4067 19.1625C36.105 19.1625 37.9569 19.6775 39.2398 20.5067C40.0145 21.0075 40.2367 22.0416 39.7359 22.8165C39.2349 23.5913 38.2008 23.8134 37.426 23.3127C36.6893 22.8364 35.4476 22.5035 34.4067 22.5035C33.0056 22.5035 31.3694 22.9231 31.3694 24.1051C31.3694 25.3889 32.1199 25.8101 34.7009 26.5918C36.9005 27.258 40.2247 28.2647 40.1935 32.0138C40.1933 34.8933 37.6812 36.8373 33.9421 36.8373Z" fill="#FF5005"/>
</svg>
