<svg width="48" height="48" viewBox="0 0 48 48" fill="none" xmlns="http://www.w3.org/2000/svg">
<path d="M24 0C10.7689 0 0 10.7689 0 24C0 37.2311 10.7689 48 24 48C37.2311 48 48 37.2311 48 24C48 10.7689 37.2311 0 24 0ZM24 4C24.3615 4 24.8754 4.19121 25.5977 5.03125C26.3199 5.87139 27.1093 7.29183 27.7773 9.12891C28.2319 10.3788 28.6081 11.8731 28.9414 13.4609C27.4077 13.7571 25.7529 13.9453 24 13.9453C22.246 13.9453 20.5922 13.7574 19.0586 13.4609C19.3919 11.8731 19.7681 10.3788 20.2227 9.12891C20.8907 7.29183 21.6801 5.87139 22.4023 5.03125C23.1246 4.19113 23.6385 4 24 4ZM30.3555 5.05469C32.8805 5.90353 35.1862 7.22396 37.1484 8.9375C36.7339 9.88114 35.7264 10.908 33.957 11.8281C33.6095 12.0089 33.1903 12.1612 32.7969 12.3242C32.4399 10.6922 32.0345 9.13482 31.5352 7.76172C31.1793 6.78298 30.7857 5.88463 30.3555 5.05469ZM17.6406 5.05859C17.2114 5.88731 16.8201 6.78477 16.4648 7.76172C15.966 9.13358 15.5638 10.69 15.207 12.3203C14.8143 12.1575 14.394 12.0087 14.0469 11.8281C12.2775 10.908 11.27 9.88114 10.8555 8.9375C12.8161 7.22588 15.1187 5.90773 17.6406 5.05859ZM8.03125 11.9766C9.04284 13.3469 10.5103 14.4946 12.2031 15.375C12.92 15.7478 13.698 16.0742 14.5078 16.3711C14.2754 18.1619 14.1324 20.0451 14.0703 22H4.09766C4.46812 18.2505 5.88698 14.823 8.03125 11.9766ZM39.9727 11.9805C42.1151 14.826 43.5321 18.2524 43.9023 22H33.9297C33.8676 20.0451 33.7246 18.1619 33.4922 16.3711C34.3024 16.0742 35.0838 15.7478 35.8008 15.375C37.4926 14.4952 38.9611 13.3497 39.9727 11.9805ZM18.4219 17.4062C20.1822 17.7368 22.0402 17.9453 24 17.9453C25.9582 17.9453 27.8182 17.7402 29.5781 17.4102C29.754 18.8756 29.8699 20.4049 29.9258 22H18.0742C18.1302 20.4035 18.2458 18.8728 18.4219 17.4062ZM4.09766 26H14.0703C14.1308 27.9046 14.2699 29.7388 14.4922 31.4883C13.6886 31.7836 12.9148 32.1065 12.2031 32.4766C10.4801 33.3726 8.98995 34.5465 7.97656 35.9492C5.86355 33.1172 4.46492 29.7171 4.09766 26ZM18.0742 26H29.9258C29.8717 27.5428 29.7642 29.0231 29.5977 30.4453C27.8336 30.1129 25.9686 29.9065 24.0039 29.9062H24C22.0353 29.9065 20.1711 30.1129 18.4062 30.4453C18.2396 29.0229 18.1283 27.543 18.0742 26ZM33.9297 26H43.9023C43.5351 29.7171 42.1365 33.1172 40.0234 35.9492C39.0101 34.5465 37.5199 33.3726 35.7969 32.4766C35.0852 32.1065 34.3111 31.7836 33.5078 31.4883C33.7301 29.7388 33.8692 27.9046 33.9297 26ZM24 33.9062C25.7641 33.9062 27.428 34.0949 28.9688 34.3945C28.6298 36.0386 28.2454 37.584 27.7773 38.8711C27.1093 40.7082 26.3199 42.1286 25.5977 42.9688C24.8754 43.8089 24.3615 44 24 44C23.6385 44 23.1246 43.8088 22.4023 42.9688C21.6801 42.1286 20.8907 40.7082 20.2227 38.8711C19.7546 37.584 19.3702 36.0386 19.0312 34.3945C20.5721 34.0952 22.237 33.9062 24 33.9062ZM15.1797 35.5391C15.5421 37.2219 15.952 38.8279 16.4648 40.2383C16.8201 41.2152 17.2114 42.1127 17.6406 42.9414C15.0958 42.0846 12.7728 40.7497 10.8008 39.0156C11.1897 38.0446 12.2116 36.9758 14.043 36.0234C14.3833 35.8464 14.7953 35.6991 15.1797 35.5391ZM32.8203 35.543C33.2028 35.7024 33.6142 35.8472 33.9531 36.0234C35.787 36.9771 36.8076 38.0474 37.1953 39.0195C35.2236 40.7524 32.9034 42.0853 30.3594 42.9414C30.7886 42.1127 31.1799 41.2152 31.5352 40.2383C32.0477 38.8289 32.458 37.2244 32.8203 35.543Z" fill="#191617"/>
</svg>
