<svg width="56" height="56" viewBox="0 0 56 56" fill="none" xmlns="http://www.w3.org/2000/svg">
<path d="M8.34072 19.898C2.78023 17.1178 0 15.7276 0 14.0002C0 12.2727 2.78023 10.8826 8.34072 8.10232L16.2044 4.17041C21.7649 1.39015 24.5451 0 28 0C31.4549 0 34.235 1.39015 39.7956 4.17041L47.6594 8.10232C53.2199 10.8826 56 12.2727 56 14.0002C56 15.7276 53.2199 17.1178 47.6594 19.898L39.7956 23.8301C34.235 26.6101 31.4549 28.0004 28 28.0004C24.5451 28.0004 21.7649 26.6101 16.2044 23.8301L8.34072 19.898Z" fill="#FF0530"/>
<path fill-rule="evenodd" clip-rule="evenodd" d="M0 14.0002C0 15.7276 2.78023 17.1178 8.34072 19.898L16.2044 23.8301C21.7649 26.6101 24.5451 28.0004 28 28.0004C31.4549 28.0004 34.235 26.6101 39.7956 23.8301L47.6594 19.898C53.2199 17.1178 56 15.7276 56 14.0002C56 12.2727 53.2199 10.8826 47.6594 8.10232L39.7956 4.17041C34.235 1.39015 31.4549 0 28 0C24.5451 0 21.7649 1.39015 16.2044 4.17041L8.34072 8.10232C2.78023 10.8826 0 12.2727 0 14.0002Z" fill="#FF0530"/>
<path d="M47.6594 33.8982L39.7956 37.8301C34.235 40.6102 31.4549 42.0004 28 42.0004C24.5451 42.0004 21.7649 40.6102 16.2044 37.8301L8.34072 33.8982C2.78023 31.1177 0 29.7275 0 28.0002C0 26.4431 2.25907 25.16 6.7772 22.886L15.572 27.2834C20.7482 29.8728 24.0016 31.5003 28 31.5003C31.9984 31.5003 35.2517 29.8728 40.4281 27.2834L49.2229 22.886C53.741 25.16 56 26.4431 56 28.0002C56 29.7275 53.2199 31.1177 47.6594 33.8982Z" fill="#FF0530"/>
<path d="M47.6594 47.8977L39.7956 51.8296C34.235 54.6097 31.4549 55.9999 28 55.9999C24.5451 55.9999 21.7649 54.6097 16.2044 51.8296L8.34072 47.8977C2.78023 45.1173 0 43.7274 0 41.9998C0 40.4426 2.25907 39.1595 6.7772 36.8855L15.572 41.283C20.7482 43.8723 24.0016 45.4998 28 45.4998C31.9984 45.4998 35.2517 43.8723 40.4281 41.283L49.2229 36.8855C53.741 39.1595 56 40.4426 56 41.9998C56 43.7274 53.2199 45.1173 47.6594 47.8977Z" fill="#FF0530"/>
</svg>
