<svg width="48.000000" height="48.000000" viewBox="0 0 48 48" fill="none" xmlns="http://www.w3.org/2000/svg" xmlns:xlink="http://www.w3.org/1999/xlink">
	<desc>
			Created with Pixso.
	</desc>
	<defs>
		<linearGradient x1="23.985415" y1="-0.000029" x2="23.985415" y2="47.999908" id="paint_linear_255_17_0" gradientUnits="userSpaceOnUse">
			<stop stop-color="#FFFFFF" stop-opacity="0.250980"/>
			<stop offset="1.000000" stop-color="#FFFFFF" stop-opacity="0.000000"/>
		</linearGradient>
	</defs>
	<path id="Vector" d="M46.3 5.08L36.41 0.29C35.27 -0.26 33.9 -0.03 33 0.88L0.65 30.55C-0.22 31.35 -0.22 32.72 0.65 33.52L3.29 35.94C4 36.59 5.08 36.64 5.84 36.05L44.81 6.32C46.12 5.32 48 6.26 48 7.91L48 7.8C48 6.64 47.33 5.58 46.3 5.08Z" fill="#0065A9" fill-opacity="1.000000" fill-rule="nonzero"/>
	<path id="Vector" d="M46.3 42.91L36.41 47.7C35.27 48.25 33.9 48.02 33 47.11L0.65 17.44C-0.22 16.64 -0.22 15.26 0.65 14.47L3.29 12.05C4 11.4 5.08 11.35 5.84 11.94L44.81 41.67C46.12 42.67 48 41.73 48 40.08L48 40.19C48 41.35 47.33 42.41 46.3 42.91Z" fill="#007ACC" fill-opacity="1.000000" fill-rule="nonzero"/>
	<path id="Vector" d="M36.41 47.7C35.27 48.25 33.9 48.02 33 47.11C34.11 48.23 36 47.44 36 45.87L36 2.12C36 0.55 34.11 -0.24 33 0.88C33.9 -0.03 35.27 -0.26 36.41 0.29L46.3 5.07C47.33 5.57 48 6.63 48 7.79L48 40.2C48 41.36 47.33 42.42 46.3 42.92L36.41 47.7Z" fill="#1F9CF0" fill-opacity="1.000000" fill-rule="nonzero"/>
	<path id="Vector" d="M34.01 47.79C34.77 48.09 35.63 48.07 36.39 47.7L46.27 42.92C47.31 42.42 47.97 41.36 47.97 40.2L47.97 7.79C47.97 6.63 47.31 5.57 46.27 5.07L36.39 0.29C35.39 -0.19 34.22 -0.07 33.34 0.57C33.22 0.66 33.1 0.76 32.98 0.88L14.08 18.23L5.84 11.94C5.07 11.35 4 11.4 3.29 12.05L0.65 14.47C-0.22 15.27 -0.22 16.64 0.65 17.44L7.79 24L0.65 30.55C-0.22 31.35 -0.22 32.73 0.65 33.52L3.29 35.94C4 36.59 5.07 36.64 5.84 36.05L14.08 29.77L32.98 47.11C33.28 47.42 33.63 47.64 34.01 47.79ZM35.98 13.04L21.63 24L35.98 34.95L35.98 13.04Z" fill="url(#paint_linear_255_17_0)" fill-opacity="1.000000" fill-rule="evenodd"/>
</svg>
