<svg width="32" height="32" viewBox="0 0 32 32" fill="none" xmlns="http://www.w3.org/2000/svg">
<path d="M15 7.38462H17V9.84615H15V7.38462ZM6.5 7.38462C6.224 7.38462 6 7.66031 6 8C6 8.33969 6.224 8.61538 6.5 8.61538C6.776 8.61538 7 8.33969 7 8C7 7.66031 6.776 7.38462 6.5 7.38462ZM21.5 30.7692H20V28.3077H12V30.7692H10.5C10.224 30.7692 10 31.0449 10 31.3846C10 31.7243 10.224 32 10.5 32H21.5C21.776 32 22 31.7243 22 31.3846C22 31.0449 21.776 30.7692 21.5 30.7692ZM32 3.69231V23.3846C32 25.424 30.657 27.0769 29 27.0769H3C1.343 27.0769 0 25.424 0 23.3846V3.69231C0 1.65292 1.343 0 3 0H29C30.657 0 32 1.65292 32 3.69231ZM26.966 7.59877C26.846 6.89477 26.379 6.33108 25.806 6.19077C25.024 6.00123 24.331 6.56 24.093 7.38462H18V6.15385H14V7.38462H7.908C7.67 6.56 6.976 6.00123 6.195 6.19077C5.622 6.32985 5.155 6.89477 5.035 7.59877C4.83 8.79385 5.565 9.84615 6.5 9.84615C7.152 9.84615 7.702 9.33046 7.908 8.61538H14V8.89108C9.612 9.99508 6.255 14.624 6.014 20.2708C5.999 20.624 6.227 20.9231 6.515 20.9231C6.778 20.9231 6.999 20.672 7.012 20.3483C7.221 15.3452 10.146 11.2283 14 10.1465V11.0769H18V10.1452C21.854 11.2283 24.779 15.3452 24.988 20.3471C25.002 20.672 25.222 20.9231 25.485 20.9231C25.773 20.9231 26.001 20.624 25.986 20.2708C25.745 14.624 22.388 9.99508 18 8.89108V8.61538H24.092C24.299 9.33046 24.848 9.84615 25.5 9.84615C26.435 9.84615 27.17 8.79385 26.966 7.59877ZM25.5 7.38462C25.224 7.38462 25 7.66031 25 8C25 8.33969 25.224 8.61538 25.5 8.61538C25.776 8.61538 26 8.33969 26 8C26 7.66031 25.776 7.38462 25.5 7.38462Z" fill="white"/>
</svg>
