<svg width="56" height="56" viewBox="0 0 56 56" fill="none" xmlns="http://www.w3.org/2000/svg">
<path fill-rule="evenodd" clip-rule="evenodd" d="M47.25 0C52.0825 0 56 3.91751 56 8.75V47.25C56 51.9553 52.286 55.7932 47.6296 55.9919L47.25 56H8.75C3.91751 56 0 52.0825 0 47.25V29.75C0 24.9175 3.91751 21 8.75 21H21V8.75C21 3.91751 24.9175 0 29.75 0H47.25ZM17.5 29.75C16.5335 29.75 15.75 30.5335 15.75 31.5V45.5C15.75 46.4665 16.5335 47.25 17.5 47.25C18.4665 47.25 19.25 46.4665 19.25 45.5V31.5C19.25 30.5335 18.4665 29.75 17.5 29.75ZM45.5 26.25H31.5C30.5335 26.25 29.75 27.0335 29.75 28C29.75 28.9665 30.5335 29.75 31.5 29.75H45.5C46.4665 29.75 47.25 28.9665 47.25 28C47.25 27.0335 46.4665 26.25 45.5 26.25ZM40.25 17.5H31.5C30.5335 17.5 29.75 18.2835 29.75 19.25C29.75 20.2165 30.5335 21 31.5 21H40.25C41.2165 21 42 20.2165 42 19.25C42 18.2835 41.2165 17.5 40.25 17.5Z" fill="#FF0530"/>
</svg>
